<mxGraphModel dx="0" dy="0" grid="1" gridSize="10" guides="1" tooltips="1" connect="1" arrows="1" fold="1" page="0" pageScale="1" background="none" math="0" shadow="0">
  <root>
    <mxCell id="0" />
    <mxCell id="1" parent="0" />
    <mxCell id="node1" parent="1" vertex="1" value="&lt;p style=&quot;margin:0px;margin-top:4px;text-align:center;&quot;&gt;&lt;b&gt;enum.Enum&lt;/b&gt;&lt;/p&gt;&lt;hr size=&quot;1&quot;/&gt;&lt;p style=&quot;margin:0 0 0 4px;line-height:1.6;&quot;&gt; _name_: &lt;br/&gt; _value_: &lt;br/&gt; _ignore_: &lt;br/&gt; _order_: &lt;br/&gt; __order__: &lt;/p&gt;&lt;hr size=&quot;1&quot;/&gt;&lt;p style=&quot;margin:0 0 0 4px;line-height:1.6;&quot;&gt; name(self): &lt;br/&gt; value(self): &lt;br/&gt; _missing_(cls, value: object): &lt;br/&gt; _generate_next_value_(name: str, start: int, count: int, last_values: list[Any]): &lt;br/&gt; __new__(cls, value: object): &lt;br/&gt; __dir__(self): &lt;br/&gt; __hash__(self): &lt;br/&gt; __format__(self, format_spec: str): &lt;br/&gt; __reduce_ex__(self, proto: Unused): &lt;br/&gt; __copy__(self): &lt;br/&gt; __deepcopy__(self, memo: Any): &lt;br/&gt; __signature__(cls): &lt;/p&gt;" style="verticalAlign=top;align=left;overflow=fill;fontSize=14;fontFamily=Helvetica;html=1;rounded=0;shadow=0;comic=0;labelBackgroundColor=none;strokeWidth=1;">
      <mxGeometry x="1098" y="1489" width="579" height="51" as="geometry" />
    </mxCell>
    <mxCell id="node7" parent="1" vertex="1" value="&lt;p style=&quot;margin:0px;margin-top:4px;text-align:center;&quot;&gt;&lt;b&gt;enum.EnumMeta&lt;/b&gt;&lt;/p&gt;&lt;hr size=&quot;1&quot;/&gt;&lt;p style=&quot;margin:0 0 0 4px;line-height:1.6;&quot;&gt; _member_names_: &lt;br/&gt; _member_map_: &lt;br/&gt; _value2member_map_: &lt;/p&gt;&lt;hr size=&quot;1&quot;/&gt;&lt;p style=&quot;margin:0 0 0 4px;line-height:1.6;&quot;&gt; __new__(             metacls: type[_typeshed.Self],             cls: str,             bases: tuple[type, ...],             classdict: _EnumDict,             *,             boundary: FlagBoundary | None = None,             _simple: bool = False,             **kwds: Any,         ): &lt;br/&gt; __new__(             metacls: type[_typeshed.Self], cls: str, bases: tuple[type, ...], classdict: _EnumDict, **kwds: Any         ): &lt;br/&gt; __new__(metacls: type[_typeshed.Self], cls: str, bases: tuple[type, ...], classdict: _EnumDict): &lt;br/&gt; __prepare__(metacls, cls: str, bases: tuple[type, ...], **kwds: Any): &lt;br/&gt; __prepare__(metacls, cls: str, bases: tuple[type, ...]): &lt;br/&gt; __iter__(self: type[_EnumMemberT]): &lt;br/&gt; __reversed__(self: type[_EnumMemberT]): &lt;br/&gt; __contains__(self: type[Any], value: object): &lt;br/&gt; __contains__(self: type[Any], member: object): &lt;br/&gt; __contains__(self: type[Any], obj: object): &lt;br/&gt; __contains__(self: type[Any], member: object): &lt;br/&gt; __getitem__(self: type[_EnumMemberT], name: str): &lt;br/&gt; __members__(self: type[_EnumMemberT]): &lt;br/&gt; __len__(self): &lt;br/&gt; __bool__(self): &lt;br/&gt; __dir__(self): &lt;br/&gt; __call__(cls: type[_EnumMemberT], value: Any, names: None = None): &lt;br/&gt; __call__(             cls,             value: str,             names: _EnumNames,             *,             module: str | None = None,             qualname: str | None = None,             type: type | None = None,             start: int = 1,             boundary: FlagBoundary | None = None,         ): &lt;br/&gt; __call__(             cls,             value: str,             names: _EnumNames,             *,             module: str | None = None,             qualname: str | None = None,             type: type | None = None,             start: int = 1,         ): &lt;br/&gt; __call__(cls: type[_EnumMemberT], value: Any, *values: Any): &lt;/p&gt;" style="verticalAlign=top;align=left;overflow=fill;fontSize=14;fontFamily=Helvetica;html=1;rounded=0;shadow=0;comic=0;labelBackgroundColor=none;strokeWidth=1;">
      <mxGeometry x="719" y="549" width="657" height="51" as="geometry" />
    </mxCell>
    <mxCell id="node3" parent="1" vertex="1" value="&lt;p style=&quot;margin:0px;margin-top:4px;text-align:center;&quot;&gt;&lt;b&gt;object&lt;/b&gt;&lt;/p&gt;&lt;hr size=&quot;1&quot;/&gt;&lt;p style=&quot;margin:0 0 0 4px;line-height:1.6;&quot;&gt; __doc__: &lt;br/&gt; __dict__: &lt;br/&gt; __module__: &lt;br/&gt; __annotations__: &lt;/p&gt;&lt;hr size=&quot;1&quot;/&gt;&lt;p style=&quot;margin:0 0 0 4px;line-height:1.6;&quot;&gt; __class__(self): &lt;br/&gt; __class__(self, __type: type[object]): &lt;br/&gt; __init__(self): &lt;br/&gt; __new__(cls): &lt;br/&gt; __setattr__(self, __name: str, __value: Any): &lt;br/&gt; __delattr__(self, __name: str): &lt;br/&gt; __eq__(self, __value: object): &lt;br/&gt; __ne__(self, __value: object): &lt;br/&gt; __str__(self): &lt;br/&gt; __repr__(self): &lt;br/&gt; __hash__(self): &lt;br/&gt; __format__(self, __format_spec: str): &lt;br/&gt; __getattribute__(self, __name: str): &lt;br/&gt; __sizeof__(self): &lt;br/&gt; __reduce__(self): &lt;br/&gt; __reduce_ex__(self, __protocol: SupportsIndex): &lt;br/&gt; __reduce_ex__(self, __protocol: int): &lt;br/&gt; __getstate__(self): &lt;br/&gt; __dir__(self): &lt;br/&gt; __init_subclass__(cls): &lt;br/&gt; __subclasshook__(cls, __subclass: type): &lt;/p&gt;" style="verticalAlign=top;align=left;overflow=fill;fontSize=14;fontFamily=Helvetica;html=1;rounded=0;shadow=0;comic=0;labelBackgroundColor=none;strokeWidth=1;">
      <mxGeometry x="-301" y="629" width="496" height="51" as="geometry" />
    </mxCell>
    <mxCell id="node2" parent="1" vertex="1" value="&lt;p style=&quot;margin:0px;margin-top:4px;text-align:center;&quot;&gt;&lt;b&gt;src.heartpredict.backend.data.Column&lt;/b&gt;&lt;/p&gt;&lt;hr size=&quot;1&quot;/&gt;&lt;p style=&quot;margin:0 0 0 4px;line-height:1.6;&quot;&gt; AGE: &lt;br/&gt; ANAEMIA: &lt;br/&gt; CREATININE_PHOSPHOKINASE: &lt;br/&gt; DIABETES: &lt;br/&gt; EJECTION_FRACTION: &lt;br/&gt; HIGH_BLOOD_PRESSURE: &lt;br/&gt; PLATELETS: &lt;br/&gt; SERUM_CREATININE: &lt;br/&gt; SERUM_SODIUM: &lt;br/&gt; SEX: &lt;br/&gt; SMOKING: &lt;br/&gt; TIME: &lt;br/&gt; DEATH_EVENT: &lt;/p&gt;" style="verticalAlign=top;align=left;overflow=fill;fontSize=14;fontFamily=Helvetica;html=1;rounded=0;shadow=0;comic=0;labelBackgroundColor=none;strokeWidth=1;">
      <mxGeometry x="1130" y="1762" width="515" height="540" as="geometry" />
    </mxCell>
    <mxCell id="node14" parent="1" vertex="1" value="&lt;p style=&quot;margin:0px;margin-top:4px;text-align:center;&quot;&gt;&lt;b&gt;src.heartpredict.backend.data.FeatureData&lt;/b&gt;&lt;/p&gt;&lt;hr size=&quot;1&quot;/&gt;&lt;p style=&quot;margin:0 0 0 4px;line-height:1.6;&quot;&gt; feature_matrix: &lt;br/&gt; scaler: &lt;br/&gt; project_data: &lt;/p&gt;&lt;hr size=&quot;1&quot;/&gt;&lt;p style=&quot;margin:0 0 0 4px;line-height:1.6;&quot;&gt; __init__(             self, project_data: ProjectData,             scaler: Path     ): &lt;br/&gt; build(             cls, project_data: ProjectData, scaler: Path     ): &lt;br/&gt; _get_feature_matrix(self): &lt;/p&gt;" style="verticalAlign=top;align=left;overflow=fill;fontSize=14;fontFamily=Helvetica;html=1;rounded=0;shadow=0;comic=0;labelBackgroundColor=none;strokeWidth=1;">
      <mxGeometry x="-298" y="1371" width="571" height="282" as="geometry" />
    </mxCell>
    <mxCell id="node11" parent="1" vertex="1" value="&lt;p style=&quot;margin:0px;margin-top:4px;text-align:center;&quot;&gt;&lt;b&gt;src.heartpredict.backend.data.MLData&lt;/b&gt;&lt;/p&gt;&lt;hr size=&quot;1&quot;/&gt;&lt;p style=&quot;margin:0 0 0 4px;line-height:1.6;&quot;&gt; random_seed: &lt;br/&gt; valid: &lt;br/&gt; test_size: &lt;br/&gt; project_data: &lt;br/&gt; dataset: &lt;br/&gt; scaled_feature_matrix: &lt;br/&gt; train: &lt;/p&gt;&lt;hr size=&quot;1&quot;/&gt;&lt;p style=&quot;margin:0 0 0 4px;line-height:1.6;&quot;&gt; __init__(             self, project_data: ProjectData, test_size: float, random_seed: int     ): &lt;br/&gt; build(             cls, project_data: ProjectData, test_size: float, random_seed: int     ): &lt;br/&gt; _get_whole_dataset(self): &lt;br/&gt; _get_prepared_matrices(self): &lt;br/&gt; _scale_input_features(x: np.ndarray): &lt;br/&gt; _scale_train_valid_input_features(             x_train: np.ndarray, x_valid: np.ndarray     ): &lt;/p&gt;" style="verticalAlign=top;align=left;overflow=fill;fontSize=14;fontFamily=Helvetica;html=1;rounded=0;shadow=0;comic=0;labelBackgroundColor=none;strokeWidth=1;">
      <mxGeometry x="677" y="802" width="541" height="541" as="geometry" />
    </mxCell>
    <mxCell id="node0" parent="1" vertex="1" value="&lt;p style=&quot;margin:0px;margin-top:4px;text-align:center;&quot;&gt;&lt;b&gt;src.heartpredict.backend.data.NumpyMatrix&lt;/b&gt;&lt;/p&gt;&lt;hr size=&quot;1&quot;/&gt;&lt;p style=&quot;margin:0 0 0 4px;line-height:1.6;&quot;&gt; x: &lt;br/&gt; y: &lt;/p&gt;" style="verticalAlign=top;align=left;overflow=fill;fontSize=14;fontFamily=Helvetica;html=1;rounded=0;shadow=0;comic=0;labelBackgroundColor=none;strokeWidth=1;">
      <mxGeometry x="336" y="1446" width="583" height="144" as="geometry" />
    </mxCell>
    <mxCell id="node16" parent="1" vertex="1" value="&lt;p style=&quot;margin:0px;margin-top:4px;text-align:center;&quot;&gt;&lt;b&gt;src.heartpredict.backend.data.ProjectData&lt;/b&gt;&lt;/p&gt;&lt;hr size=&quot;1&quot;/&gt;&lt;p style=&quot;margin:0 0 0 4px;line-height:1.6;&quot;&gt; df: &lt;/p&gt;&lt;hr size=&quot;1&quot;/&gt;&lt;p style=&quot;margin:0 0 0 4px;line-height:1.6;&quot;&gt; __init__(self, csv: Path): &lt;br/&gt; build(cls, csv: Path): &lt;/p&gt;" style="verticalAlign=top;align=left;overflow=fill;fontSize=14;fontFamily=Helvetica;html=1;rounded=0;shadow=0;comic=0;labelBackgroundColor=none;strokeWidth=1;">
      <mxGeometry x="26" y="987" width="563" height="171" as="geometry" />
    </mxCell>
    <mxCell id="node10" parent="1" vertex="1" value="&lt;p style=&quot;margin:0px;margin-top:4px;text-align:center;&quot;&gt;&lt;b&gt;str&lt;/b&gt;&lt;/p&gt;&lt;hr size=&quot;1&quot;/&gt;&lt;p style=&quot;margin:0 0 0 4px;line-height:1.6;&quot;&gt; __new__(cls, object: object = ...): &lt;br/&gt; __new__(cls, object: ReadableBuffer, encoding: str = ..., errors: str = ...): &lt;br/&gt; capitalize(self: LiteralString): &lt;br/&gt; capitalize(self): &lt;br/&gt; casefold(self: LiteralString): &lt;br/&gt; casefold(self): &lt;br/&gt; center(self: LiteralString, __width: SupportsIndex, __fillchar: LiteralString = &amp;quot; &amp;quot;): &lt;br/&gt; center(self, __width: SupportsIndex, __fillchar: str = &amp;quot; &amp;quot;): &lt;br/&gt; count(self, x: str, __start: SupportsIndex | None = ..., __end: SupportsIndex | None = ...): &lt;br/&gt; encode(self, encoding: str = &amp;quot;utf-8&amp;quot;, errors: str = &amp;quot;strict&amp;quot;): &lt;br/&gt; endswith(         self, __suffix: str | tuple[str, ...], __start: SupportsIndex | None = ..., __end: SupportsIndex | None = ...     ): &lt;br/&gt; expandtabs(self: LiteralString, tabsize: SupportsIndex = 8): &lt;br/&gt; expandtabs(self, tabsize: SupportsIndex = 8): &lt;br/&gt; expandtabs(self: LiteralString, tabsize: int = 8): &lt;br/&gt; expandtabs(self, tabsize: int = 8): &lt;br/&gt; find(self, __sub: str, __start: SupportsIndex | None = ..., __end: SupportsIndex | None = ...): &lt;br/&gt; format(self: LiteralString, *args: LiteralString, **kwargs: LiteralString): &lt;br/&gt; format(self, *args: object, **kwargs: object): &lt;br/&gt; format_map(self, map: _FormatMapMapping): &lt;br/&gt; index(self, __sub: str, __start: SupportsIndex | None = ..., __end: SupportsIndex | None = ...): &lt;br/&gt; isalnum(self): &lt;br/&gt; isalpha(self): &lt;br/&gt; isascii(self): &lt;br/&gt; isdecimal(self): &lt;br/&gt; isdigit(self): &lt;br/&gt; isidentifier(self): &lt;br/&gt; islower(self): &lt;br/&gt; isnumeric(self): &lt;br/&gt; isprintable(self): &lt;br/&gt; isspace(self): &lt;br/&gt; istitle(self): &lt;br/&gt; isupper(self): &lt;br/&gt; join(self: LiteralString, __iterable: Iterable[LiteralString]): &lt;br/&gt; join(self, __iterable: Iterable[str]): &lt;br/&gt; ljust(self: LiteralString, __width: SupportsIndex, __fillchar: LiteralString = &amp;quot; &amp;quot;): &lt;br/&gt; ljust(self, __width: SupportsIndex, __fillchar: str = &amp;quot; &amp;quot;): &lt;br/&gt; lower(self: LiteralString): &lt;br/&gt; lower(self): &lt;br/&gt; lstrip(self: LiteralString, __chars: LiteralString | None = None): &lt;br/&gt; lstrip(self, __chars: str | None = None): &lt;br/&gt; partition(self: LiteralString, __sep: LiteralString): &lt;br/&gt; partition(self, __sep: str): &lt;br/&gt; replace(         self: LiteralString, __old: LiteralString, __new: LiteralString, __count: SupportsIndex = -1     ): &lt;br/&gt; replace(self, __old: str, __new: str, __count: SupportsIndex = -1): &lt;br/&gt; removeprefix(self: LiteralString, __prefix: LiteralString): &lt;br/&gt; removeprefix(self, __prefix: str): &lt;br/&gt; removesuffix(self: LiteralString, __suffix: LiteralString): &lt;br/&gt; removesuffix(self, __suffix: str): &lt;br/&gt; rfind(self, __sub: str, __start: SupportsIndex | None = ..., __end: SupportsIndex | None = ...): &lt;br/&gt; rindex(self, __sub: str, __start: SupportsIndex | None = ..., __end: SupportsIndex | None = ...): &lt;br/&gt; rjust(self: LiteralString, __width: SupportsIndex, __fillchar: LiteralString = &amp;quot; &amp;quot;): &lt;br/&gt; rjust(self, __width: SupportsIndex, __fillchar: str = &amp;quot; &amp;quot;): &lt;br/&gt; rpartition(self: LiteralString, __sep: LiteralString): &lt;br/&gt; rpartition(self, __sep: str): &lt;br/&gt; rsplit(self: LiteralString, sep: LiteralString | None = None, maxsplit: SupportsIndex = -1): &lt;br/&gt; rsplit(self, sep: str | None = None, maxsplit: SupportsIndex = -1): &lt;br/&gt; rstrip(self: LiteralString, __chars: LiteralString | None = None): &lt;br/&gt; rstrip(self, __chars: str | None = None): &lt;br/&gt; split(self: LiteralString, sep: LiteralString | None = None, maxsplit: SupportsIndex = -1): &lt;br/&gt; split(self, sep: str | None = None, maxsplit: SupportsIndex = -1): &lt;br/&gt; splitlines(self: LiteralString, keepends: bool = False): &lt;br/&gt; splitlines(self, keepends: bool = False): &lt;br/&gt; startswith(         self, __prefix: str | tuple[str, ...], __start: SupportsIndex | None = ..., __end: SupportsIndex | None = ...     ): &lt;br/&gt; strip(self: LiteralString, __chars: LiteralString | None = None): &lt;br/&gt; strip(self, __chars: str | None = None): &lt;br/&gt; swapcase(self: LiteralString): &lt;br/&gt; swapcase(self): &lt;br/&gt; title(self: LiteralString): &lt;br/&gt; title(self): &lt;br/&gt; translate(self, __table: _TranslateTable): &lt;br/&gt; upper(self: LiteralString): &lt;br/&gt; upper(self): &lt;br/&gt; zfill(self: LiteralString, __width: SupportsIndex): &lt;br/&gt; zfill(self, __width: SupportsIndex): &lt;br/&gt; maketrans(__x: dict[int, _T] | dict[str, _T] | dict[str | int, _T]): &lt;br/&gt; maketrans(__x: str, __y: str): &lt;br/&gt; maketrans(__x: str, __y: str, __z: str): &lt;br/&gt; __add__(self: LiteralString, __value: LiteralString): &lt;br/&gt; __add__(self, __value: str): &lt;br/&gt; __contains__(self, __key: str): &lt;br/&gt; __eq__(self, __value: object): &lt;br/&gt; __ge__(self, __value: str): &lt;br/&gt; __getitem__(self, __key: SupportsIndex | slice): &lt;br/&gt; __gt__(self, __value: str): &lt;br/&gt; __hash__(self): &lt;br/&gt; __iter__(self: LiteralString): &lt;br/&gt; __iter__(self): &lt;br/&gt; __le__(self, __value: str): &lt;br/&gt; __len__(self): &lt;br/&gt; __lt__(self, __value: str): &lt;br/&gt; __mod__(self: LiteralString, __value: LiteralString | tuple[LiteralString, ...]): &lt;br/&gt; __mod__(self, __value: Any): &lt;br/&gt; __mul__(self: LiteralString, __value: SupportsIndex): &lt;br/&gt; __mul__(self, __value: SupportsIndex): &lt;br/&gt; __ne__(self, __value: object): &lt;br/&gt; __rmul__(self: LiteralString, __value: SupportsIndex): &lt;br/&gt; __rmul__(self, __value: SupportsIndex): &lt;br/&gt; __getnewargs__(self): &lt;/p&gt;" style="verticalAlign=top;align=left;overflow=fill;fontSize=14;fontFamily=Helvetica;html=1;rounded=0;shadow=0;comic=0;labelBackgroundColor=none;strokeWidth=1;">
      <mxGeometry x="244" y="629" width="607" height="51" as="geometry" />
    </mxCell>
    <mxCell id="node9" parent="1" vertex="1" value="&lt;p style=&quot;margin:0px;margin-top:4px;text-align:center;&quot;&gt;&lt;b&gt;typing.Collection&lt;/b&gt;&lt;/p&gt;&lt;hr size=&quot;1&quot;/&gt;&lt;p style=&quot;margin:0 0 0 4px;line-height:1.6;&quot;&gt; __len__(self): &lt;/p&gt;" style="verticalAlign=top;align=left;overflow=fill;fontSize=14;fontFamily=Helvetica;html=1;rounded=0;shadow=0;comic=0;labelBackgroundColor=none;strokeWidth=1;">
      <mxGeometry x="1339" y="629" width="257" height="51" as="geometry" />
    </mxCell>
    <mxCell id="node5" parent="1" vertex="1" value="&lt;p style=&quot;margin:0px;margin-top:4px;text-align:center;&quot;&gt;&lt;b&gt;typing.Container&lt;/b&gt;&lt;/p&gt;&lt;hr size=&quot;1&quot;/&gt;&lt;p style=&quot;margin:0 0 0 4px;line-height:1.6;&quot;&gt; __contains__(self, __x: object): &lt;/p&gt;" style="verticalAlign=top;align=left;overflow=fill;fontSize=14;fontFamily=Helvetica;html=1;rounded=0;shadow=0;comic=0;labelBackgroundColor=none;strokeWidth=1;">
      <mxGeometry x="1281" y="329" width="333" height="51" as="geometry" />
    </mxCell>
    <mxCell id="node8" parent="1" vertex="1" value="&lt;p style=&quot;margin:0px;margin-top:4px;text-align:center;&quot;&gt;&lt;b&gt;typing.Hashable&lt;/b&gt;&lt;/p&gt;&lt;hr size=&quot;1&quot;/&gt;&lt;p style=&quot;margin:0 0 0 4px;line-height:1.6;&quot;&gt; __hash__(self): &lt;/p&gt;" style="verticalAlign=top;align=left;overflow=fill;fontSize=14;fontFamily=Helvetica;html=1;rounded=0;shadow=0;comic=0;labelBackgroundColor=none;strokeWidth=1;">
      <mxGeometry x="102" y="329" width="250" height="51" as="geometry" />
    </mxCell>
    <mxCell id="node15" parent="1" vertex="1" value="&lt;p style=&quot;margin:0px;margin-top:4px;text-align:center;&quot;&gt;&lt;b&gt;typing.Iterable&lt;/b&gt;&lt;/p&gt;&lt;hr size=&quot;1&quot;/&gt;&lt;p style=&quot;margin:0 0 0 4px;line-height:1.6;&quot;&gt; __iter__(self): &lt;/p&gt;" style="verticalAlign=top;align=left;overflow=fill;fontSize=14;fontFamily=Helvetica;html=1;rounded=0;shadow=0;comic=0;labelBackgroundColor=none;strokeWidth=1;">
      <mxGeometry x="1573" y="249" width="229" height="51" as="geometry" />
    </mxCell>
    <mxCell id="node13" parent="1" vertex="1" value="&lt;p style=&quot;margin:0px;margin-top:4px;text-align:center;&quot;&gt;&lt;b&gt;typing.Iterator&lt;/b&gt;&lt;/p&gt;&lt;hr size=&quot;1&quot;/&gt;&lt;p style=&quot;margin:0 0 0 4px;line-height:1.6;&quot;&gt; __next__(self): &lt;br/&gt; __iter__(self): &lt;/p&gt;" style="verticalAlign=top;align=left;overflow=fill;fontSize=14;fontFamily=Helvetica;html=1;rounded=0;shadow=0;comic=0;labelBackgroundColor=none;strokeWidth=1;">
      <mxGeometry x="695" y="329" width="225" height="51" as="geometry" />
    </mxCell>
    <mxCell id="node12" parent="1" vertex="1" value="&lt;p style=&quot;margin:0px;margin-top:4px;text-align:center;&quot;&gt;&lt;b&gt;typing.Reversible&lt;/b&gt;&lt;/p&gt;&lt;hr size=&quot;1&quot;/&gt;&lt;p style=&quot;margin:0 0 0 4px;line-height:1.6;&quot;&gt; __reversed__(self): &lt;/p&gt;" style="verticalAlign=top;align=left;overflow=fill;fontSize=14;fontFamily=Helvetica;html=1;rounded=0;shadow=0;comic=0;labelBackgroundColor=none;strokeWidth=1;">
      <mxGeometry x="1556" y="549" width="263" height="51" as="geometry" />
    </mxCell>
    <mxCell id="node6" parent="1" vertex="1" value="&lt;p style=&quot;margin:0px;margin-top:4px;text-align:center;&quot;&gt;&lt;b&gt;typing.Sequence&lt;/b&gt;&lt;/p&gt;&lt;hr size=&quot;1&quot;/&gt;&lt;p style=&quot;margin:0 0 0 4px;line-height:1.6;&quot;&gt; __getitem__(self, index: int): &lt;br/&gt; __getitem__(self, index: slice): &lt;br/&gt; index(self, value: Any, start: int = 0, stop: int = ...): &lt;br/&gt; count(self, value: Any): &lt;br/&gt; __contains__(self, value: object): &lt;br/&gt; __iter__(self): &lt;br/&gt; __reversed__(self): &lt;/p&gt;" style="verticalAlign=top;align=left;overflow=fill;fontSize=14;fontFamily=Helvetica;html=1;rounded=0;shadow=0;comic=0;labelBackgroundColor=none;strokeWidth=1;">
      <mxGeometry x="263" y="249" width="529" height="51" as="geometry" />
    </mxCell>
    <mxCell id="node4" parent="1" vertex="1" value="&lt;p style=&quot;margin:0px;margin-top:4px;text-align:center;&quot;&gt;&lt;b&gt;typing.Sized&lt;/b&gt;&lt;/p&gt;&lt;hr size=&quot;1&quot;/&gt;&lt;p style=&quot;margin:0 0 0 4px;line-height:1.6;&quot;&gt; __len__(self): &lt;/p&gt;" style="verticalAlign=top;align=left;overflow=fill;fontSize=14;fontFamily=Helvetica;html=1;rounded=0;shadow=0;comic=0;labelBackgroundColor=none;strokeWidth=1;">
      <mxGeometry x="1145" y="249" width="205" height="51" as="geometry" />
    </mxCell>
    <mxCell id="edge5" edge="1" value="" parent="1" source="node1" target="node7" style="html=1;rounded=1;edgeStyle=orthogonalEdgeStyle;dashed=1;startArrow=classic;startSize=12;endArrow=none;strokeColor=#595959;exitX=0.750;exitY=0.001;exitDx=0;exitDy=0;entryX=0.500;entryY=1.001;entryDx=0;entryDy=0;">
      <mxGeometry width="50" height="50" relative="1" as="geometry">
        <Array as="points">
          <mxPoint x="1532" y="1452" />
          <mxPoint x="1287" y="1452" />
          <mxPoint x="1287" y="752" />
          <mxPoint x="1047" y="752" />
        </Array>
      </mxGeometry>
    </mxCell>
    <mxCell id="label34" parent="edge5" vertex="1" connectable="0" value="isinstanceof" style="edgeLabel;resizable=0;html=1;align=left;verticalAlign=top;strokeColor=default;">
      <mxGeometry x="967" y="601" as="geometry" />
    </mxCell>
    <mxCell id="edge8" edge="1" value="" parent="1" source="node1" target="node3" style="html=1;rounded=1;edgeStyle=orthogonalEdgeStyle;dashed=0;startArrow=block;startSize=12;endArrow=none;strokeColor=#595959;exitX=0.250;exitY=0.001;exitDx=0;exitDy=0;entryX=0.500;entryY=1.001;entryDx=0;entryDy=0;">
      <mxGeometry width="50" height="50" relative="1" as="geometry">
        <Array as="points">
          <mxPoint x="1242" y="772" />
          <mxPoint x="187" y="772" />
          <mxPoint x="187" y="712" />
          <mxPoint x="-53" y="712" />
        </Array>
      </mxGeometry>
    </mxCell>
    <mxCell id="edge22" edge="1" value="" parent="1" source="node1" target="node8" style="html=1;rounded=1;edgeStyle=orthogonalEdgeStyle;dashed=1;startArrow=block;startSize=12;endArrow=none;strokeColor=#595959;exitX=0.750;exitY=0.001;exitDx=0;exitDy=0;entryX=0.500;entryY=1.001;entryDx=0;entryDy=0;">
      <mxGeometry width="50" height="50" relative="1" as="geometry">
        <Array as="points">
          <mxPoint x="1532" y="1452" />
          <mxPoint x="1287" y="1452" />
          <mxPoint x="1287" y="752" />
          <mxPoint x="227" y="752" />
        </Array>
      </mxGeometry>
    </mxCell>
    <mxCell id="edge13" edge="1" value="" parent="1" source="node7" target="node5" style="html=1;rounded=1;edgeStyle=orthogonalEdgeStyle;dashed=1;startArrow=block;startSize=12;endArrow=none;strokeColor=#595959;exitX=0.500;exitY=0.001;exitDx=0;exitDy=0;entryX=0.250;entryY=1.001;entryDx=0;entryDy=0;">
      <mxGeometry width="50" height="50" relative="1" as="geometry">
        <Array as="points">
          <mxPoint x="1047" y="412" />
          <mxPoint x="1364" y="412" />
        </Array>
      </mxGeometry>
    </mxCell>
    <mxCell id="edge2" edge="1" value="" parent="1" source="node7" target="node15" style="html=1;rounded=1;edgeStyle=orthogonalEdgeStyle;dashed=1;startArrow=block;startSize=12;endArrow=none;strokeColor=#595959;exitX=0.500;exitY=0.001;exitDx=0;exitDy=0;entryX=0.250;entryY=1.001;entryDx=0;entryDy=0;">
      <mxGeometry width="50" height="50" relative="1" as="geometry">
        <Array as="points">
          <mxPoint x="1047" y="412" />
          <mxPoint x="1630" y="412" />
        </Array>
      </mxGeometry>
    </mxCell>
    <mxCell id="edge19" edge="1" value="" parent="1" source="node7" target="node13" style="html=1;rounded=1;edgeStyle=orthogonalEdgeStyle;dashed=1;startArrow=block;startSize=12;endArrow=none;strokeColor=#595959;exitX=0.500;exitY=0.001;exitDx=0;exitDy=0;entryX=0.500;entryY=1.001;entryDx=0;entryDy=0;">
      <mxGeometry width="50" height="50" relative="1" as="geometry">
        <Array as="points">
          <mxPoint x="1047" y="532" />
          <mxPoint x="807" y="532" />
        </Array>
      </mxGeometry>
    </mxCell>
    <mxCell id="edge6" edge="1" value="" parent="1" source="node7" target="node6" style="html=1;rounded=1;edgeStyle=orthogonalEdgeStyle;dashed=1;startArrow=block;startSize=12;endArrow=none;strokeColor=#595959;exitX=0.500;exitY=0.001;exitDx=0;exitDy=0;entryX=0.750;entryY=1.001;entryDx=0;entryDy=0;">
      <mxGeometry width="50" height="50" relative="1" as="geometry">
        <Array as="points">
          <mxPoint x="1047" y="412" />
          <mxPoint x="659" y="412" />
        </Array>
      </mxGeometry>
    </mxCell>
    <mxCell id="edge0" edge="1" value="" parent="1" source="node7" target="node4" style="html=1;rounded=1;edgeStyle=orthogonalEdgeStyle;dashed=1;startArrow=block;startSize=12;endArrow=none;strokeColor=#595959;exitX=0.500;exitY=0.001;exitDx=0;exitDy=0;entryX=0.500;entryY=1.001;entryDx=0;entryDy=0;">
      <mxGeometry width="50" height="50" relative="1" as="geometry">
        <Array as="points">
          <mxPoint x="1047" y="512" />
          <mxPoint x="1247" y="512" />
        </Array>
      </mxGeometry>
    </mxCell>
    <mxCell id="edge12" edge="1" value="" parent="1" source="node3" target="node8" style="html=1;rounded=1;edgeStyle=orthogonalEdgeStyle;dashed=1;startArrow=block;startSize=12;endArrow=none;strokeColor=#595959;exitX=0.500;exitY=0.001;exitDx=0;exitDy=0;entryX=0.500;entryY=1.001;entryDx=0;entryDy=0;">
      <mxGeometry width="50" height="50" relative="1" as="geometry">
        <Array as="points">
          <mxPoint x="-53" y="592" />
          <mxPoint x="227" y="592" />
        </Array>
      </mxGeometry>
    </mxCell>
    <mxCell id="edge3" edge="1" value="" parent="1" source="node2" target="node1" style="html=1;rounded=1;edgeStyle=orthogonalEdgeStyle;dashed=0;startArrow=block;startSize=12;endArrow=none;strokeColor=#595959;exitX=0.500;exitY=0.000;exitDx=0;exitDy=0;entryX=0.500;entryY=1.001;entryDx=0;entryDy=0;">
      <mxGeometry width="50" height="50" relative="1" as="geometry">
        <Array as="points" />
      </mxGeometry>
    </mxCell>
    <mxCell id="edge11" edge="1" value="" parent="1" source="node2" target="node10" style="html=1;rounded=1;edgeStyle=orthogonalEdgeStyle;dashed=0;startArrow=block;startSize=12;endArrow=none;strokeColor=#595959;exitX=0.500;exitY=0.000;exitDx=0;exitDy=0;entryX=0.500;entryY=1.001;entryDx=0;entryDy=0;">
      <mxGeometry width="50" height="50" relative="1" as="geometry">
        <Array as="points">
          <mxPoint x="1387" y="1732" />
          <mxPoint x="1707" y="1732" />
          <mxPoint x="1707" y="712" />
          <mxPoint x="547" y="712" />
        </Array>
      </mxGeometry>
    </mxCell>
    <mxCell id="edge16" edge="1" value="" parent="1" source="node14" target="node3" style="html=1;rounded=1;edgeStyle=orthogonalEdgeStyle;dashed=0;startArrow=block;startSize=12;endArrow=none;strokeColor=#595959;exitX=0.500;exitY=0.000;exitDx=0;exitDy=0;entryX=0.500;entryY=1.001;entryDx=0;entryDy=0;">
      <mxGeometry width="50" height="50" relative="1" as="geometry">
        <Array as="points">
          <mxPoint x="-13" y="772" />
          <mxPoint x="187" y="772" />
          <mxPoint x="187" y="712" />
          <mxPoint x="-53" y="712" />
        </Array>
      </mxGeometry>
    </mxCell>
    <mxCell id="edge7" edge="1" value="" parent="1" source="node11" target="node3" style="html=1;rounded=1;edgeStyle=orthogonalEdgeStyle;dashed=0;startArrow=block;startSize=12;endArrow=none;strokeColor=#595959;exitX=0.500;exitY=0.000;exitDx=0;exitDy=0;entryX=0.500;entryY=1.001;entryDx=0;entryDy=0;">
      <mxGeometry width="50" height="50" relative="1" as="geometry">
        <Array as="points">
          <mxPoint x="947" y="772" />
          <mxPoint x="187" y="772" />
          <mxPoint x="187" y="712" />
          <mxPoint x="-53" y="712" />
        </Array>
      </mxGeometry>
    </mxCell>
    <mxCell id="edge9" edge="1" value="" parent="1" source="node0" target="node3" style="html=1;rounded=1;edgeStyle=orthogonalEdgeStyle;dashed=0;startArrow=block;startSize=12;endArrow=none;strokeColor=#595959;exitX=0.500;exitY=0.000;exitDx=0;exitDy=0;entryX=0.500;entryY=1.001;entryDx=0;entryDy=0;">
      <mxGeometry width="50" height="50" relative="1" as="geometry">
        <Array as="points">
          <mxPoint x="627" y="772" />
          <mxPoint x="187" y="772" />
          <mxPoint x="187" y="712" />
          <mxPoint x="-53" y="712" />
        </Array>
      </mxGeometry>
    </mxCell>
    <mxCell id="edge21" edge="1" value="" parent="1" source="node16" target="node3" style="html=1;rounded=1;edgeStyle=orthogonalEdgeStyle;dashed=0;startArrow=block;startSize=12;endArrow=none;strokeColor=#595959;exitX=0.500;exitY=0.000;exitDx=0;exitDy=0;entryX=0.500;entryY=1.001;entryDx=0;entryDy=0;">
      <mxGeometry width="50" height="50" relative="1" as="geometry">
        <Array as="points">
          <mxPoint x="307" y="772" />
          <mxPoint x="187" y="772" />
          <mxPoint x="187" y="712" />
          <mxPoint x="-53" y="712" />
        </Array>
      </mxGeometry>
    </mxCell>
    <mxCell id="edge20" edge="1" value="" parent="1" source="node10" target="node8" style="html=1;rounded=1;edgeStyle=orthogonalEdgeStyle;dashed=1;startArrow=block;startSize=12;endArrow=none;strokeColor=#595959;exitX=0.750;exitY=0.001;exitDx=0;exitDy=0;entryX=0.500;entryY=1.001;entryDx=0;entryDy=0;">
      <mxGeometry width="50" height="50" relative="1" as="geometry">
        <Array as="points">
          <mxPoint x="699" y="592" />
          <mxPoint x="707" y="592" />
          <mxPoint x="707" y="452" />
          <mxPoint x="227" y="452" />
        </Array>
      </mxGeometry>
    </mxCell>
    <mxCell id="edge18" edge="1" value="" parent="1" source="node10" target="node13" style="html=1;rounded=1;edgeStyle=orthogonalEdgeStyle;dashed=1;startArrow=block;startSize=12;endArrow=none;strokeColor=#595959;exitX=0.750;exitY=0.001;exitDx=0;exitDy=0;entryX=0.500;entryY=1.001;entryDx=0;entryDy=0;">
      <mxGeometry width="50" height="50" relative="1" as="geometry">
        <Array as="points">
          <mxPoint x="699" y="592" />
          <mxPoint x="707" y="592" />
          <mxPoint x="707" y="432" />
          <mxPoint x="807" y="432" />
        </Array>
      </mxGeometry>
    </mxCell>
    <mxCell id="edge14" edge="1" value="" parent="1" source="node10" target="node6" style="html=1;rounded=1;edgeStyle=orthogonalEdgeStyle;dashed=0;startArrow=block;startSize=12;endArrow=none;strokeColor=#595959;exitX=0.250;exitY=0.001;exitDx=0;exitDy=0;entryX=0.250;entryY=1.001;entryDx=0;entryDy=0;">
      <mxGeometry width="50" height="50" relative="1" as="geometry">
        <Array as="points">
          <mxPoint x="395" y="592" />
          <mxPoint x="395" y="592" />
        </Array>
      </mxGeometry>
    </mxCell>
    <mxCell id="edge1" edge="1" value="" parent="1" source="node10" target="node4" style="html=1;rounded=1;edgeStyle=orthogonalEdgeStyle;dashed=1;startArrow=block;startSize=12;endArrow=none;strokeColor=#595959;exitX=0.750;exitY=0.001;exitDx=0;exitDy=0;entryX=0.500;entryY=1.001;entryDx=0;entryDy=0;">
      <mxGeometry width="50" height="50" relative="1" as="geometry">
        <Array as="points">
          <mxPoint x="699" y="592" />
          <mxPoint x="707" y="592" />
          <mxPoint x="707" y="472" />
          <mxPoint x="1247" y="472" />
        </Array>
      </mxGeometry>
    </mxCell>
    <mxCell id="edge4" edge="1" value="" parent="1" source="node9" target="node5" style="html=1;rounded=1;edgeStyle=orthogonalEdgeStyle;dashed=0;startArrow=block;startSize=12;endArrow=none;strokeColor=#595959;exitX=0.750;exitY=0.001;exitDx=0;exitDy=0;entryX=0.750;entryY=1.001;entryDx=0;entryDy=0;">
      <mxGeometry width="50" height="50" relative="1" as="geometry">
        <Array as="points">
          <mxPoint x="1531" y="592" />
          <mxPoint x="1527" y="592" />
          <mxPoint x="1527" y="432" />
          <mxPoint x="1530" y="432" />
        </Array>
      </mxGeometry>
    </mxCell>
    <mxCell id="edge17" edge="1" value="" parent="1" source="node9" target="node15" style="html=1;rounded=1;edgeStyle=orthogonalEdgeStyle;dashed=0;startArrow=block;startSize=12;endArrow=none;strokeColor=#595959;exitX=0.750;exitY=0.001;exitDx=0;exitDy=0;entryX=0.750;entryY=1.001;entryDx=0;entryDy=0;">
      <mxGeometry width="50" height="50" relative="1" as="geometry">
        <Array as="points">
          <mxPoint x="1531" y="592" />
          <mxPoint x="1527" y="592" />
          <mxPoint x="1527" y="452" />
          <mxPoint x="1687" y="452" />
          <mxPoint x="1687" y="332" />
          <mxPoint x="1744" y="332" />
        </Array>
      </mxGeometry>
    </mxCell>
    <mxCell id="edge10" edge="1" value="" parent="1" source="node9" target="node4" style="html=1;rounded=1;edgeStyle=orthogonalEdgeStyle;dashed=1;startArrow=block;startSize=12;endArrow=none;strokeColor=#595959;exitX=0.250;exitY=0.001;exitDx=0;exitDy=0;entryX=0.500;entryY=1.001;entryDx=0;entryDy=0;">
      <mxGeometry width="50" height="50" relative="1" as="geometry">
        <Array as="points">
          <mxPoint x="1403" y="532" />
          <mxPoint x="1247" y="532" />
        </Array>
      </mxGeometry>
    </mxCell>
    <mxCell id="edge15" edge="1" value="" parent="1" source="node12" target="node15" style="html=1;rounded=1;edgeStyle=orthogonalEdgeStyle;dashed=0;startArrow=block;startSize=12;endArrow=none;strokeColor=#595959;exitX=0.500;exitY=0.001;exitDx=0;exitDy=0;entryX=0.750;entryY=1.001;entryDx=0;entryDy=0;">
      <mxGeometry width="50" height="50" relative="1" as="geometry">
        <Array as="points">
          <mxPoint x="1687" y="332" />
          <mxPoint x="1744" y="332" />
        </Array>
      </mxGeometry>
    </mxCell>
  </root>
</mxGraphModel>